<svg width="31" height="31" viewBox="0 0 31 31" fill="none" xmlns="http://www.w3.org/2000/svg">
<path d="M11.6251 9.04166H7.75008C7.06494 9.04166 6.40786 9.31383 5.92339 9.7983C5.43892 10.2828 5.16675 10.9398 5.16675 11.625V23.25C5.16675 23.9351 5.43892 24.5922 5.92339 25.0767C6.40786 25.5612 7.06494 25.8333 7.75008 25.8333H19.3751C20.0602 25.8333 20.7173 25.5612 21.2018 25.0767C21.6862 24.5922 21.9584 23.9351 21.9584 23.25V19.375" stroke="#EEEEEE" stroke-width="2.75" stroke-linecap="round" stroke-linejoin="round"/>
<path d="M11.625 19.375H15.5L26.4792 8.39583C26.993 7.88197 27.2817 7.18503 27.2817 6.45833C27.2817 5.73163 26.993 5.03469 26.4792 4.52083C25.9653 4.00697 25.2684 3.71829 24.5417 3.71829C23.815 3.71829 23.118 4.00697 22.6042 4.52083L11.625 15.5V19.375Z" stroke="#EEEEEE" stroke-width="2.75" stroke-linecap="round" stroke-linejoin="round"/>
<path d="M20.6667 6.45834L24.5417 10.3333" stroke="#EEEEEE" stroke-width="2.75" stroke-linecap="round" stroke-linejoin="round"/>
</svg>
