<svg width="287" height="156" viewBox="0 0 287 156" fill="none" xmlns="http://www.w3.org/2000/svg">
<g clip-path="url(#clip0)">
<path d="M144.421 156C222.243 156 285.331 151.825 285.331 146.675C285.331 141.525 222.243 137.351 144.421 137.351C66.5985 137.351 3.51099 141.525 3.51099 146.675C3.51099 151.825 66.5985 156 144.421 156Z" fill="#F2F2F2"/>
<path d="M139.02 44.5945C116.062 44.5945 99.5785 59.3177 99.5785 93.6718C99.5785 132.606 116.062 142.913 139.02 142.913C161.978 142.913 179.444 131.625 179.444 93.6718C179.444 53.1013 161.978 44.5945 139.02 44.5945ZM139.171 129.989C123.27 129.989 114.962 120.664 114.962 93.697C114.962 69.9025 123.61 57.3546 139.511 57.3546C155.412 57.3546 164.06 65.5969 164.06 93.697C164.06 119.984 155.072 129.989 139.171 129.989Z" fill="#2F2E41"/>
<path d="M85.8312 115.757H76.339V87.816C76.339 86.332 75.7492 84.9087 74.6994 83.8594C73.6496 82.81 72.2258 82.2205 70.7411 82.2205H68.5169C67.7818 82.2205 67.0539 82.3652 66.3747 82.6464C65.6955 82.9276 65.0784 83.3398 64.5586 83.8594C64.0388 84.379 63.6265 84.9958 63.3451 85.6747C63.0638 86.3536 62.919 87.0812 62.919 87.816V115.757H36.1448C35.594 115.757 35.0525 115.614 34.5729 115.344C34.0934 115.073 33.692 114.683 33.4077 114.211C33.1234 113.739 32.9658 113.202 32.9503 112.652C32.9348 112.102 33.0619 111.557 33.3192 111.07L61.6568 57.458C62.01 56.7896 62.2242 56.0566 62.2862 55.3032C62.3483 54.5497 62.257 53.7916 62.0178 53.0744C61.7786 52.3572 61.3966 51.696 60.8947 51.1305C60.3928 50.565 59.7814 50.107 59.0976 49.7842L57.4247 48.9946C56.1258 48.3815 54.6408 48.2909 53.2769 48.7417C51.9131 49.1925 50.7748 50.1501 50.0976 51.4165L15.5362 116.043C14.9477 117.144 14.6398 118.373 14.6398 119.62C14.6398 120.617 14.8361 121.604 15.2176 122.524C15.599 123.445 16.1582 124.281 16.863 124.986C17.5679 125.69 18.4047 126.249 19.3256 126.63C20.2466 127.012 21.2336 127.208 22.2304 127.208H62.919V144.876C62.919 145.757 63.0926 146.629 63.4298 147.443C63.767 148.256 64.2612 148.996 64.8843 149.619C65.5074 150.241 66.2471 150.735 67.0612 151.072C67.8753 151.41 68.7478 151.583 69.629 151.583H69.629C70.5102 151.583 71.3827 151.41 72.1968 151.072C73.0109 150.735 73.7506 150.241 74.3737 149.619C74.9968 148.996 75.491 148.256 75.8282 147.443C76.1654 146.629 76.339 145.757 76.339 144.876V127.208H85.8312C87.3504 127.208 88.8073 126.605 89.8815 125.531C90.9557 124.457 91.5592 123.001 91.5592 121.482C91.5592 119.964 90.9558 118.507 89.8815 117.434C88.8073 116.36 87.3504 115.757 85.8312 115.757Z" fill="#3B6978"/>
<path d="M261.6 115.757H252.108V87.816C252.108 86.332 251.518 84.9087 250.469 83.8594C249.419 82.81 247.995 82.2205 246.51 82.2205H244.286C243.551 82.2205 242.823 82.3652 242.144 82.6464C241.465 82.9276 240.848 83.3398 240.328 83.8594C239.808 84.379 239.396 84.9958 239.114 85.6747C238.833 86.3536 238.688 87.0812 238.688 87.816V115.757H211.914C211.363 115.757 210.822 115.614 210.342 115.344C209.863 115.073 209.461 114.683 209.177 114.211C208.893 113.739 208.735 113.202 208.719 112.652C208.704 112.102 208.831 111.557 209.088 111.07L237.426 57.458C237.779 56.7896 237.993 56.0566 238.055 55.3032C238.117 54.5497 238.026 53.7916 237.787 53.0744C237.548 52.3572 237.166 51.696 236.664 51.1305C236.162 50.565 235.551 50.107 234.867 49.7842L233.194 48.9946C231.895 48.3815 230.41 48.2909 229.046 48.7417C227.682 49.1925 226.544 50.1501 225.867 51.4165L191.305 116.043C190.717 117.144 190.409 118.373 190.409 119.62C190.409 121.633 191.209 123.563 192.632 124.986C194.056 126.409 195.986 127.208 198 127.208H238.688V144.876C238.688 146.655 239.395 148.361 240.653 149.619C241.912 150.876 243.619 151.583 245.398 151.583C247.178 151.583 248.884 150.876 250.143 149.619C251.401 148.361 252.108 146.655 252.108 144.876V127.208H261.6C263.119 127.208 264.576 126.605 265.651 125.531C266.725 124.457 267.328 123.001 267.328 121.482C267.328 119.964 266.725 118.507 265.651 117.434C264.576 116.36 263.12 115.757 261.6 115.757Z" fill="#3B6978"/>
<path d="M88.4497 112.485H78.9575V84.5442C78.9575 83.8094 78.8128 83.0818 78.5314 82.4029C78.2501 81.724 77.8378 81.1072 77.318 80.5876C76.7981 80.068 76.181 79.6558 75.5019 79.3746C74.8227 79.0934 74.0948 78.9487 73.3597 78.9487H71.1354C69.6508 78.9487 68.2269 79.5382 67.1771 80.5876C66.1273 81.6369 65.5375 83.0602 65.5375 84.5442V112.485H38.7633C38.2125 112.485 37.671 112.342 37.1915 112.072C36.7119 111.801 36.3105 111.411 36.0262 110.939C35.7419 110.468 35.5843 109.931 35.5688 109.38C35.5533 108.83 35.6804 108.285 35.9377 107.798L64.2753 54.1862C64.6286 53.5178 64.8427 52.7848 64.9048 52.0314C64.9668 51.278 64.8755 50.5198 64.6363 49.8026C64.3972 49.0855 64.0151 48.4242 63.5132 47.8587C63.0113 47.2932 62.4 46.8352 61.7161 46.5124L60.0433 45.7228C58.7443 45.1097 57.2593 45.0191 55.8955 45.4699C54.5316 45.9207 53.3933 46.8783 52.7161 48.1446L18.1547 112.772C17.5662 113.872 17.2583 115.101 17.2583 116.349V116.349C17.2583 118.361 18.058 120.291 19.4816 121.714C20.9051 123.137 22.8358 123.936 24.849 123.936H65.5375V141.604C65.5375 142.485 65.7111 143.357 66.0483 144.171C66.3855 144.984 66.8798 145.724 67.5029 146.347C68.1259 146.97 68.8656 147.464 69.6797 147.801C70.4938 148.138 71.3664 148.311 72.2475 148.311H72.2475C74.0271 148.311 75.7339 147.605 76.9922 146.347C78.2506 145.089 78.9575 143.383 78.9575 141.604V123.936H88.4497C89.2019 123.936 89.9468 123.788 90.6418 123.5C91.3367 123.213 91.9682 122.791 92.5001 122.259C93.032 121.727 93.4539 121.096 93.7417 120.402C94.0296 119.707 94.1778 118.962 94.1778 118.21V118.21C94.1778 117.459 94.0296 116.714 93.7418 116.019C93.4539 115.325 93.032 114.694 92.5001 114.162C91.9682 113.63 91.3367 113.208 90.6418 112.921C89.9468 112.633 89.202 112.485 88.4497 112.485V112.485Z" stroke="#3F3D56" stroke-miterlimit="10"/>
<path d="M266.51 112.485H257.018V84.5442C257.018 83.0602 256.428 81.6369 255.378 80.5876C254.329 79.5382 252.905 78.9487 251.42 78.9487H249.196C248.461 78.9487 247.733 79.0934 247.054 79.3746C246.374 79.6558 245.757 80.068 245.238 80.5876C244.718 81.1072 244.305 81.724 244.024 82.4029C243.743 83.0818 243.598 83.8094 243.598 84.5442V112.485H216.824C216.273 112.485 215.731 112.342 215.252 112.072C214.772 111.801 214.371 111.411 214.087 110.939C213.802 110.468 213.645 109.931 213.629 109.38C213.614 108.83 213.741 108.285 213.998 107.798L242.336 54.1862C242.689 53.5178 242.903 52.7848 242.965 52.0314C243.027 51.278 242.936 50.5198 242.697 49.8026C242.458 49.0855 242.076 48.4242 241.574 47.8587C241.072 47.2932 240.46 46.8352 239.777 46.5124L238.104 45.7228C236.805 45.1097 235.32 45.0191 233.956 45.4699C232.592 45.9207 231.454 46.8783 230.777 48.1446L196.215 112.772C195.627 113.872 195.319 115.101 195.319 116.349C195.319 118.361 196.118 120.291 197.542 121.714C198.966 123.137 200.896 123.936 202.909 123.936H243.598V141.604C243.598 143.383 244.305 145.089 245.563 146.347C246.822 147.605 248.528 148.311 250.308 148.311V148.311C252.088 148.311 253.794 147.605 255.053 146.347C256.311 145.089 257.018 143.383 257.018 141.604V123.936H266.51C267.262 123.936 268.007 123.788 268.702 123.5C269.397 123.213 270.029 122.791 270.56 122.259C271.092 121.727 271.514 121.096 271.802 120.402C272.09 119.707 272.238 118.962 272.238 118.21V118.21C272.238 116.692 271.635 115.236 270.56 114.162C269.486 113.088 268.029 112.485 266.51 112.485V112.485Z" stroke="#3F3D56" stroke-miterlimit="10"/>
<path d="M144.257 41.6499C121.299 41.6499 104.816 56.3731 104.816 90.7272C104.816 129.662 121.299 139.968 144.257 139.968C167.215 139.968 184.681 128.68 184.681 90.7272C184.681 50.1566 167.215 41.6499 144.257 41.6499ZM144.408 127.044C128.507 127.044 120.199 117.719 120.199 90.7523C120.199 66.9579 128.847 54.41 144.748 54.41C160.65 54.41 169.297 62.6522 169.297 90.7523C169.297 117.039 160.309 127.044 144.408 127.044V127.044Z" stroke="#3F3D56" stroke-miterlimit="10"/>
<path d="M125.855 8.31805C127.758 8.31805 129.301 6.77574 129.301 4.8732C129.301 2.97067 127.758 1.42836 125.855 1.42836C123.952 1.42836 122.409 2.97067 122.409 4.8732C122.409 6.77574 123.952 8.31805 125.855 8.31805Z" fill="#2F2E41"/>
<path d="M134.26 25.0381C139.599 25.0381 143.927 19.4331 143.927 12.5191C143.927 5.60497 139.599 0 134.26 0C128.922 0 124.594 5.60497 124.594 12.5191C124.594 19.4331 128.922 25.0381 134.26 25.0381Z" fill="#2F2E41"/>
<path opacity="0.1" d="M134.26 21.2572C129.418 21.2572 125.407 16.6457 124.704 10.6286C124.631 11.2561 124.594 11.8873 124.594 12.519C124.594 19.4331 128.922 25.0381 134.26 25.0381C139.599 25.0381 143.927 19.4331 143.927 12.519C143.927 11.8873 143.89 11.2561 143.817 10.6286C143.113 16.6457 139.103 21.2572 134.26 21.2572Z" fill="black"/>
<path d="M153.93 49.1817C153.723 50.0344 152.828 50.7173 151.836 51.1944C149.752 52.1975 147.182 52.4969 144.688 52.5974C144.052 52.636 143.414 52.6242 142.78 52.5621C141.551 52.4433 140.398 51.9135 139.507 51.0584C139.444 51.017 139.392 50.9602 139.356 50.8932C139.32 50.8263 139.302 50.7514 139.303 50.6755C139.305 50.5997 139.325 50.5254 139.363 50.4596C139.4 50.3937 139.454 50.3385 139.519 50.2991C140.846 48.8414 143.062 47.9477 145.293 47.3042C146.985 46.8162 149.936 45.5523 151.782 45.7229C153.569 45.8881 154.192 48.105 153.93 49.1817Z" fill="#3F3D56"/>
<path opacity="0.1" d="M153.93 49.1817C153.723 50.0344 152.828 50.7173 151.836 51.1944C149.752 52.1975 147.182 52.4969 144.688 52.5974C144.052 52.636 143.414 52.6242 142.78 52.5621C141.551 52.4433 140.398 51.9135 139.507 51.0584C139.444 51.017 139.392 50.9602 139.356 50.8932C139.32 50.8263 139.302 50.7514 139.303 50.6755C139.305 50.5997 139.325 50.5254 139.363 50.4596C139.4 50.3937 139.454 50.3385 139.519 50.2991C140.846 48.8414 143.062 47.9477 145.293 47.3042C146.985 46.8162 149.936 45.5523 151.782 45.7229C153.569 45.8881 154.192 48.105 153.93 49.1817Z" fill="black"/>
<path d="M127.432 42.8086C126.796 44.0549 126.68 45.5027 127.112 46.8339C127.55 48.1549 128.371 49.3162 129.47 50.1707C132.167 52.3314 135.878 52.6287 139.334 52.5987C142.362 52.5723 145.387 52.3651 148.391 51.9782C149.397 51.889 150.387 51.6594 151.329 51.2961C152.457 50.8083 153.449 49.9136 153.85 48.7526C154.252 47.5915 153.967 46.1698 153.013 45.395C152.175 44.7142 151.019 44.6206 149.942 44.5558L143.774 44.1853C144.384 43.5689 145.195 43.2203 145.937 42.7722C146.921 42.1777 147.575 41.1796 148.291 40.2797C149.394 38.9621 150.594 37.7289 151.881 36.5903C152.082 37.7413 152.81 38.6864 153.667 39.4805C154.525 40.2746 155.513 40.914 156.404 41.6701C158.562 43.5014 160.116 45.9869 162.385 47.6781C163.947 47.268 165.406 46.5396 166.672 45.5387L165.79 43.9416C165.717 43.7772 165.602 43.6344 165.458 43.5269C165.208 43.3734 164.886 43.4525 164.596 43.4091C163.821 43.2929 163.483 42.3987 163.179 41.6768C162.344 39.6951 160.746 38.1575 159.381 36.4957C158.373 35.2689 157.48 33.953 156.711 32.5644C156.252 31.7362 155.832 30.8739 155.21 30.1604C154.588 29.4469 153.716 28.8859 152.769 28.8839C151.932 28.8821 151.161 29.3067 150.441 29.7338C148.25 31.0348 146.142 32.4704 144.129 34.0325C143.075 34.8501 142.029 35.7138 140.793 36.2151C140.273 36.4262 139.724 36.5704 139.225 36.8272C138.351 37.277 137.687 38.0379 136.973 38.7134C134.425 41.1228 130.937 42.6838 127.432 42.8086Z" fill="#3F3D56"/>
<path d="M140.328 25.6598C140.299 26.3963 140.142 27.1222 139.864 27.8049C139.724 28.1454 139.514 28.4532 139.249 28.7093C138.984 28.9653 138.669 29.1639 138.324 29.2929C137.833 29.4242 137.319 29.4409 136.822 29.3416C136.388 29.2963 135.969 29.1539 135.598 28.9249C135.02 28.5275 134.731 27.8183 134.626 27.1243C134.521 26.4311 134.568 25.7229 134.501 25.0246C134.435 24.4607 134.328 23.9024 134.18 23.3543C134.134 23.172 134.088 22.9905 134.043 22.809C133.998 22.6275 133.955 22.4461 133.914 22.2646C133.877 22.094 133.843 21.9226 133.813 21.7504C133.789 21.605 133.767 21.4588 133.751 21.3118C133.736 20.8759 133.664 20.4439 133.535 20.0271C133.414 19.7568 133.263 19.5012 133.085 19.265C133.008 19.1558 132.934 19.0466 132.866 18.9332C132.669 18.6384 132.578 18.2858 132.606 17.9325C132.614 17.8779 132.628 17.8241 132.646 17.772C132.653 17.7518 132.66 17.7317 132.668 17.7124C132.744 17.6918 132.814 17.6532 132.871 17.5997C132.928 17.5463 132.971 17.4797 132.997 17.4057C133.026 17.2467 133.012 17.0829 132.958 16.9309C132.895 16.7186 132.809 16.5137 132.701 16.3201C132.631 16.1924 132.391 15.9622 132.389 15.816C132.386 15.5219 132.961 15.285 133.194 15.169C133.905 14.8133 134.697 14.6527 135.49 14.7036C135.999 14.738 136.55 14.8943 136.831 15.3203C137.083 15.7042 137.049 16.2016 137.157 16.6478C137.168 16.7126 137.196 16.7736 137.237 16.8251C137.292 16.875 137.361 16.9067 137.434 16.9158C137.559 16.9406 137.687 16.9457 137.813 16.9309H137.814C137.847 16.9283 137.88 16.9235 137.913 16.9166C138.109 16.8804 138.295 16.8003 138.456 16.6822C138.56 16.6545 138.665 16.6318 138.771 16.6142C138.775 16.6137 138.779 16.6129 138.784 16.6117C139.205 17.94 139.259 19.3642 139.604 20.7169C139.775 21.3899 140.019 22.0545 140.054 22.7468C140.056 22.7771 140.057 22.8082 140.058 22.8393C140.063 23.0619 140.045 23.2862 140.054 23.5081C140.058 23.6079 140.069 23.7074 140.088 23.8055C140.126 23.9632 140.173 24.1187 140.228 24.271L140.231 24.2785C140.247 24.3273 140.262 24.3768 140.275 24.4264C140.284 24.4625 140.292 24.4978 140.299 24.5339L140.3 24.5365C140.362 24.9077 140.371 25.286 140.328 25.6598Z" fill="#FBBEBE"/>
<path d="M134.428 16.9722C137.167 16.9722 139.388 14.7527 139.388 12.015C139.388 9.27716 137.167 7.05774 134.428 7.05774C131.69 7.05774 129.469 9.27716 129.469 12.015C129.469 14.7527 131.69 16.9722 134.428 16.9722Z" fill="#FBBEBE"/>
<path d="M165.914 39.0242C165.77 37.6717 165.289 36.3769 164.515 35.2584C164.644 36.023 164.773 36.7873 164.902 37.5513C164.741 37.5978 164.571 37.5963 164.411 37.5472C164.251 37.4981 164.109 37.4035 164.003 37.2749C163.794 37.0143 163.634 36.7179 163.531 36.4002C162.968 35.0021 162.231 33.6803 161.338 32.4656C158.181 32.2026 155.06 30.8944 152.284 29.3694C149.506 27.8453 146.907 26.0178 144.167 24.429C143.692 24.142 143.197 23.8892 142.686 23.6728C141.829 23.3291 140.866 23.151 140.054 22.7469C139.999 22.72 139.944 22.6914 139.89 22.662C139.707 22.5622 139.533 22.4455 139.371 22.3133C139.284 22.2423 139.2 22.166 139.122 22.0848C138.717 21.6132 138.395 21.0755 138.172 20.4951C137.735 19.5306 137.58 18.3669 137.144 17.4023C137.345 17.2154 137.569 17.0568 137.813 16.931H137.813C137.849 16.9125 137.884 16.8949 137.92 16.8781C138.092 16.797 138.272 16.7314 138.456 16.6823C138.56 16.6546 138.665 16.6319 138.771 16.6142C138.775 16.6138 138.779 16.613 138.783 16.6117C139.275 16.5317 139.778 16.5715 140.25 16.7277C140.941 16.9612 141.524 17.4276 142.105 17.8687C143.048 18.5332 143.953 19.2507 144.815 20.0179C145.294 20.4766 145.731 20.9808 146.247 21.3975C146.675 21.7278 147.126 22.0269 147.597 22.2923C150.386 23.9526 153.174 25.6125 155.963 27.2722C156.907 27.8343 157.851 28.3964 158.774 28.9913C160.176 29.8954 161.528 30.875 162.879 31.8539C163.675 32.4303 164.47 33.0069 165.266 33.5839C165.527 33.7503 165.756 33.962 165.943 34.209C166.107 34.4894 166.21 34.8021 166.243 35.1256C166.442 36.4329 166.33 37.7688 165.914 39.0242Z" fill="#FBBEBE"/>
<path d="M141.557 29.3879C141.223 30.8876 139.706 31.7942 138.914 33.1116C137.929 34.7467 138.33 36.6472 138.7 38.52C138.024 39.1023 137.348 39.6846 136.672 40.2668C136.299 40.587 135.926 40.9087 135.524 41.1919C134.938 41.5843 134.326 41.9358 133.691 42.2438C133.093 42.5514 132.494 42.8591 131.896 43.1672C131.34 43.4799 130.75 43.7296 130.138 43.9116C128.959 44.2141 127.707 44.0024 126.54 43.652C126.402 43.616 126.27 43.562 126.147 43.4915C126.074 43.4482 126.01 43.3908 125.96 43.3227C125.845 43.1165 125.803 42.8775 125.841 42.6446C125.96 40.6819 126.44 38.7603 126.918 36.8531C127.174 35.7089 127.518 34.5861 127.946 33.4948C128.367 32.5597 128.85 31.6541 129.393 30.7843C129.992 29.6899 130.702 28.6597 131.511 27.71C131.905 27.3444 132.237 26.917 132.493 26.4446C132.791 25.7641 132.676 24.9835 132.737 24.2424C132.783 23.6857 132.931 23.1421 133.173 22.6385V22.6377C133.302 22.3664 133.458 22.1086 133.638 21.868C133.72 22.0579 133.802 22.2475 133.883 22.4368C133.937 22.5612 133.99 22.6853 134.043 22.8091C134.112 22.9687 134.18 23.1278 134.248 23.2863C134.444 23.7417 134.639 24.1968 134.835 24.6516C135.046 25.2245 135.346 25.7602 135.726 26.2388C135.899 26.4838 136.133 26.6798 136.405 26.8074C136.676 26.9351 136.976 26.9902 137.276 26.9672C137.575 26.9443 137.863 26.8441 138.113 26.6765C138.362 26.509 138.563 26.2797 138.697 26.0111C138.979 25.5097 139.184 24.9683 139.304 24.4055C139.47 23.7201 139.493 23.0079 139.371 22.3133C139.168 20.9757 138.599 19.6096 138.186 18.3669C138.017 17.9526 137.92 17.5129 137.898 17.0663C137.898 17.0161 137.903 16.966 137.913 16.9167C137.915 16.9041 137.918 16.8907 137.92 16.8781C138.092 16.797 138.272 16.7314 138.456 16.6823C138.56 16.6546 138.665 16.6319 138.771 16.6142C139.135 18.5837 139.499 20.5531 139.864 22.5226C139.873 22.5688 139.882 22.615 139.89 22.662C139.943 22.9443 139.996 23.2266 140.054 23.5081C140.107 23.7635 140.164 24.0181 140.228 24.271L140.231 24.2786C140.253 24.3643 140.275 24.4491 140.299 24.534L140.3 24.5365C140.365 24.7684 140.437 24.9986 140.518 25.2255C141.013 26.5925 141.874 27.9688 141.557 29.3879Z" fill="#3B6978"/>
<path d="M161.684 50.4643C161.668 50.7532 161.724 51.0415 161.847 51.3036C162.157 51.8707 162.902 51.9996 163.546 52.0526C167.311 52.3619 171.098 52.2465 174.837 51.7087C175.039 51.6949 175.236 51.6338 175.411 51.5305C175.943 51.1579 175.615 50.2501 175.035 49.9594C174.454 49.6688 173.766 49.7389 173.129 49.613C172.496 49.4538 171.893 49.1926 171.345 48.8397C170.053 48.098 168.781 47.3247 167.527 46.5198C166.78 46.0406 165.899 45.5292 165.059 45.8133C162.781 46.5834 161.669 48.0087 161.684 50.4643Z" fill="#3F3D56"/>
<path d="M133.933 22.1596V22.1604C133.928 22.1957 133.922 22.2301 133.914 22.2646C133.905 22.3217 133.894 22.3797 133.883 22.4368C133.779 22.9704 133.651 23.5014 133.504 24.029C133.101 25.4868 132.56 26.921 132.024 28.3342C130.585 32.1236 129.145 35.9132 127.706 39.703C127.343 40.6575 126.98 41.6128 126.568 42.548C126.43 42.8597 126.288 43.1739 126.147 43.4915C125.641 44.6283 125.155 45.8021 124.993 47.012C124.843 47.8083 124.826 48.624 124.942 49.4259C125.103 50.2191 125.585 50.9937 126.339 51.287C126.707 51.4306 127.234 51.623 127.133 52.0053C127.079 52.2154 126.84 52.3179 126.626 52.3532C126.343 52.3983 126.053 52.3805 125.778 52.3013C125.502 52.222 125.248 52.0831 125.032 51.8944C124.629 51.5373 124.32 50.982 123.785 50.9223C123.414 50.882 123.073 51.1038 122.733 51.2592C121.348 51.8919 119.734 51.4491 118.279 50.9996C118.393 50.4106 118.985 50.0224 119.573 49.9048C120.16 49.7864 120.768 49.8704 121.367 49.8544C121.559 49.8646 121.75 49.8157 121.913 49.7141C122.059 49.5799 122.161 49.4048 122.207 49.2116C122.593 48.0682 122.88 46.8938 123.065 45.7013C123.258 44.4552 123.339 43.1899 123.615 41.959C123.829 40.9986 124.16 40.0685 124.444 39.1258C124.994 37.1848 125.445 35.2174 125.796 33.2309C125.974 32.4057 126.101 31.5704 126.177 30.7297C126.225 30.0323 126.202 29.3316 126.269 28.6367C126.382 27.7327 126.571 26.8398 126.833 25.9674C127.091 25.0154 127.347 24.064 127.604 23.1132C127.985 21.7058 128.393 20.2439 129.358 19.1499C129.694 18.7648 130.104 18.4526 130.565 18.2326C131.026 18.0127 131.527 17.8896 132.037 17.8712C132.229 17.8709 132.419 17.8915 132.606 17.9325C132.637 17.94 132.668 17.9476 132.7 17.956C132.903 18.0092 133.099 18.0901 133.28 18.1963C133.578 18.0073 133.729 18.0736 133.927 18.3652C134.1 18.6737 134.182 19.0252 134.162 19.3785C134.179 20.3108 134.102 21.2425 133.933 22.1596Z" fill="#FBBEBE"/>
<path d="M134.26 23.2737L134.248 23.2863L134.18 23.3544L133.504 24.029L133.173 22.6385L132.037 17.8712C132.228 17.8709 132.419 17.8915 132.606 17.9325C132.614 17.8779 132.627 17.8241 132.646 17.772L132.699 17.956L133.084 19.2651L133.813 21.7504L133.933 22.1596V22.1604L134.26 23.2737Z" fill="#3B6978"/>
<path d="M138.549 8.06466C138.548 8.50609 138.461 8.94309 138.291 9.35066C138.121 9.75824 137.873 10.1284 137.56 10.44C137.447 10.5534 137.326 10.6584 137.197 10.7541C136.617 11.1912 135.91 11.4278 135.184 11.4281H131.151C130.26 11.4267 129.406 11.0719 128.777 10.4416C128.147 9.81131 127.793 8.957 127.793 8.0663C127.793 7.17559 128.147 6.32129 128.777 5.69098C129.406 5.06067 130.26 4.70587 131.151 4.7045H135.184C136.075 4.70682 136.929 5.06147 137.56 5.69103C138.19 6.32059 138.546 7.1739 138.549 8.06466Z" fill="#2F2E41"/>
<path d="M142.33 8.31805C144.233 8.31805 145.776 6.77574 145.776 4.8732C145.776 2.97067 144.233 1.42836 142.33 1.42836C140.426 1.42836 138.883 2.97067 138.883 4.8732C138.883 6.77574 140.426 8.31805 142.33 8.31805Z" fill="#2F2E41"/>
<path opacity="0.1" d="M142.246 1.42836C142.203 1.42836 142.162 1.43004 142.12 1.43155C143.011 1.46394 143.855 1.84073 144.475 2.48262C145.094 3.12452 145.44 3.98148 145.44 4.8732C145.44 5.76493 145.094 6.62189 144.475 7.26378C143.855 7.90568 143.011 8.28246 142.12 8.31486C142.162 8.31637 142.203 8.31804 142.246 8.31804C143.16 8.31804 144.036 7.95511 144.683 7.30907C145.329 6.66304 145.692 5.78683 145.692 4.8732C145.692 3.95958 145.329 3.08337 144.683 2.43733C144.036 1.7913 143.16 1.42836 142.246 1.42836Z" fill="black"/>
<path opacity="0.1" d="M125.855 1.42836C125.897 1.42836 125.939 1.43004 125.981 1.43155C125.089 1.46394 124.245 1.84073 123.626 2.48262C123.007 3.12452 122.661 3.98148 122.661 4.8732C122.661 5.76493 123.007 6.62189 123.626 7.26378C124.245 7.90568 125.089 8.28246 125.981 8.31486C125.939 8.31637 125.897 8.31804 125.855 8.31804C124.941 8.31724 124.066 7.95395 123.42 7.308C122.774 6.66206 122.412 5.78631 122.412 4.8732C122.412 3.9601 122.774 3.08435 123.42 2.4384C124.066 1.79246 124.941 1.42916 125.855 1.42836Z" fill="black"/>
<path opacity="0.1" d="M137.197 10.7541C136.617 11.1912 135.91 11.4278 135.184 11.4281H131.152C130.425 11.4278 129.719 11.1912 129.139 10.7541H137.197Z" fill="black"/>
<path d="M163.238 35.7152C163.238 35.7152 164.107 38.2176 164.902 37.5513L164.268 34.2804L163.238 35.7152Z" fill="#FBBEBE"/>
<path d="M268.961 112.027C269.771 112.321 270.637 112.423 271.492 112.326C272.348 112.228 273.169 111.933 273.891 111.464C274.613 110.995 275.216 110.364 275.652 109.623C276.089 108.881 276.347 108.048 276.407 107.189C276.467 106.331 276.326 105.47 275.996 104.675C275.666 103.88 275.156 103.172 274.506 102.608C273.856 102.044 273.084 101.638 272.25 101.423C271.416 101.208 270.544 101.19 269.702 101.369L269.841 104.229L268.487 101.778C267.158 102.402 266.132 103.528 265.633 104.908C265.456 105.392 265.348 105.898 265.313 106.412C265.228 107.617 265.538 108.817 266.196 109.83C266.854 110.844 267.825 111.615 268.961 112.027Z" fill="#57B894"/>
<path d="M275.66 145.202C275.182 142.77 277.253 140.613 279.299 139.211C281.344 137.81 283.734 136.432 284.432 134.053C285.435 130.635 282.448 127.504 280.122 124.804C278.397 122.8 276.915 120.599 275.708 118.246C275.224 117.303 274.78 116.317 274.652 115.265C274.469 113.749 274.956 112.241 275.447 110.796C277.081 105.98 278.829 101.205 280.69 96.4702" stroke="#3F3D56" stroke-miterlimit="10"/>
<path d="M269.19 111.291C269.999 111.585 270.866 111.687 271.721 111.589C272.577 111.491 273.398 111.196 274.12 110.727C274.842 110.258 275.445 109.628 275.881 108.886C276.318 108.144 276.576 107.311 276.636 106.453C276.696 105.594 276.555 104.734 276.225 103.939C275.895 103.144 275.385 102.436 274.735 101.872C274.085 101.307 273.312 100.902 272.479 100.687C271.645 100.472 270.773 100.453 269.931 100.633L270.07 103.493L268.716 101.042C267.387 101.666 266.361 102.792 265.862 104.172C265.685 104.655 265.577 105.161 265.542 105.675C265.457 106.88 265.767 108.081 266.425 109.094C267.083 110.107 268.054 110.879 269.19 111.291V111.291Z" stroke="#3F3D56" stroke-miterlimit="10"/>
<path d="M274.981 95.4823C275.298 94.6065 275.831 93.8246 276.531 93.2087C277.23 92.5929 278.073 92.1629 278.982 91.9583L279.44 94.6776L280.289 91.8217C281.467 91.8391 282.609 92.2305 283.551 92.9392C284.492 93.6479 285.184 94.6373 285.526 95.7645C285.868 96.8918 285.843 98.0985 285.454 99.2106C285.065 100.323 284.333 101.282 283.363 101.951C282.393 102.62 281.236 102.964 280.058 102.932C278.879 102.901 277.742 102.496 276.809 101.776C275.876 101.056 275.197 100.059 274.868 98.9273C274.539 97.7961 274.579 96.5897 274.981 95.4823H274.981Z" fill="#57B894"/>
<path d="M275.286 94.5004C275.604 93.6246 276.137 92.8427 276.836 92.2268C277.535 91.611 278.378 91.181 279.288 90.9764L279.745 93.6957L280.594 90.8398C281.772 90.8572 282.915 91.2486 283.856 91.9573C284.797 92.666 285.489 93.6554 285.831 94.7826C286.173 95.9098 286.148 97.1166 285.759 98.2286C285.371 99.3407 284.638 100.3 283.668 100.969C282.698 101.638 281.541 101.982 280.363 101.95C279.185 101.919 278.047 101.514 277.114 100.794C276.182 100.074 275.502 99.0766 275.173 97.9454C274.845 96.8142 274.884 95.6078 275.286 94.5004H275.286Z" stroke="#3F3D56" stroke-miterlimit="10"/>
<path d="M279.146 124.859C280.429 125.324 281.839 125.301 283.107 124.794C284.374 124.287 285.411 123.332 286.019 122.11C286.627 120.888 286.764 119.486 286.404 118.169C286.044 116.853 285.212 115.715 284.066 114.973L283.414 117.168L282.952 114.416C282.947 114.414 282.943 114.412 282.938 114.411C282.251 114.162 281.522 114.05 280.793 114.082C280.063 114.114 279.347 114.29 278.685 114.599C278.024 114.908 277.429 115.344 276.937 115.883C276.444 116.422 276.062 117.052 275.813 117.739C275.564 118.425 275.452 119.153 275.485 119.883C275.518 120.612 275.694 121.328 276.004 121.989C276.313 122.65 276.75 123.244 277.289 123.736C277.828 124.229 278.459 124.61 279.146 124.859H279.146Z" fill="#57B894"/>
<path d="M279.411 123.864C280.694 124.329 282.104 124.306 283.371 123.8C284.639 123.293 285.675 122.337 286.283 121.116C286.891 119.894 287.028 118.491 286.668 117.175C286.308 115.859 285.476 114.721 284.331 113.978L283.679 116.173L283.216 113.422C283.212 113.42 283.207 113.418 283.202 113.416C282.516 113.167 281.787 113.055 281.057 113.088C280.328 113.12 279.612 113.296 278.95 113.605C278.288 113.914 277.694 114.35 277.201 114.889C276.708 115.427 276.326 116.058 276.077 116.744C275.828 117.43 275.717 118.159 275.75 118.888C275.782 119.618 275.959 120.333 276.268 120.994C276.578 121.656 277.015 122.249 277.554 122.742C278.093 123.234 278.724 123.616 279.411 123.864H279.411Z" stroke="#3F3D56" stroke-miterlimit="10"/>
<path d="M273.358 134.088C273.579 135.343 274.225 136.484 275.187 137.319C276.149 138.155 277.37 138.634 278.644 138.677C279.918 138.72 281.168 138.324 282.185 137.555C283.201 136.786 283.922 135.691 284.227 134.453C284.531 133.216 284.401 131.912 283.858 130.759C283.314 129.606 282.391 128.675 281.243 128.122C280.094 127.569 278.79 127.428 277.55 127.721C276.309 128.015 275.208 128.726 274.43 129.736L276.907 133.462L273.522 131.484C273.26 132.327 273.203 133.219 273.358 134.088Z" fill="#57B894"/>
<path d="M273.587 133.351C273.808 134.606 274.454 135.747 275.416 136.583C276.378 137.418 277.599 137.898 278.873 137.941C280.147 137.984 281.397 137.587 282.414 136.818C283.43 136.049 284.151 134.954 284.456 133.717C284.76 132.48 284.63 131.175 284.087 130.022C283.543 128.87 282.62 127.939 281.472 127.386C280.323 126.833 279.019 126.691 277.779 126.985C276.538 127.279 275.437 127.99 274.659 128.999L277.136 132.726L273.751 130.748C273.489 131.59 273.432 132.483 273.587 133.351V133.351Z" stroke="#3F3D56" stroke-miterlimit="10"/>
<path d="M2.40619 125.565C2.93785 125.758 3.50714 125.825 4.06919 125.761C4.63123 125.697 5.17067 125.503 5.64498 125.195C6.11929 124.886 6.5155 124.472 6.8024 123.985C7.08929 123.498 7.25902 122.95 7.29821 122.386C7.33739 121.822 7.24497 121.257 7.02821 120.734C6.81146 120.212 6.4763 119.747 6.04915 119.376C5.62201 119.006 5.11455 118.739 4.56678 118.598C4.01901 118.456 3.4459 118.444 2.89263 118.562L2.98406 120.441L2.09456 118.831C1.22156 119.241 0.54714 119.981 0.219492 120.887C0.103131 121.205 0.0323918 121.538 0.00938542 121.875C-0.0467603 122.667 0.156847 123.456 0.589352 124.121C1.02186 124.787 1.65969 125.294 2.40619 125.565Z" fill="#57B894"/>
<path d="M6.80739 147.361C6.49339 145.763 7.854 144.346 9.19796 143.425C10.5419 142.504 12.1123 141.599 12.5708 140.036C13.2299 137.79 11.2668 135.733 9.73889 133.959C8.60533 132.643 7.63187 131.196 6.83887 129.651C6.49412 129.044 6.2593 128.381 6.14523 127.692C6.02475 126.696 6.34477 125.705 6.66717 124.756C7.74119 121.592 8.8895 118.454 10.1121 115.344" stroke="#3F3D56" stroke-miterlimit="10"/>
<path d="M2.55658 125.081C3.08825 125.274 3.65754 125.341 4.21958 125.277C4.78162 125.213 5.32106 125.019 5.79537 124.711C6.26967 124.403 6.66589 123.988 6.95278 123.501C7.23967 123.014 7.4094 122.466 7.44859 121.902C7.48778 121.338 7.39535 120.773 7.1786 120.25C6.96184 119.728 6.62668 119.263 6.19954 118.892C5.77239 118.522 5.26494 118.255 4.71717 118.114C4.1694 117.973 3.5963 117.96 3.04302 118.078L3.13445 119.958L2.24495 118.347C1.37196 118.757 0.69753 119.497 0.369883 120.404C0.253523 120.721 0.182785 121.054 0.159777 121.391C0.103628 122.183 0.307234 122.972 0.73974 123.637C1.17225 124.303 1.81008 124.81 2.55658 125.081V125.081Z" stroke="#3F3D56" stroke-miterlimit="10"/>
<path d="M6.361 114.694C6.56964 114.119 6.91983 113.605 7.37929 113.201C7.83875 112.796 8.3927 112.514 8.9901 112.379L9.29085 114.166L9.84844 112.289C10.6226 112.301 11.3731 112.558 11.9916 113.024C12.6101 113.489 13.0645 114.139 13.2893 114.88C13.5141 115.62 13.4976 116.413 13.2422 117.144C12.9868 117.875 12.5057 118.505 11.8684 118.945C11.2311 119.384 10.4705 119.61 9.69655 119.589C8.92256 119.569 8.17517 119.302 7.5623 118.83C6.94943 118.357 6.50279 117.701 6.28687 116.958C6.07094 116.215 6.0969 115.422 6.361 114.694Z" fill="#57B894"/>
<path d="M6.56156 114.049C6.77021 113.474 7.12039 112.96 7.57985 112.556C8.03931 112.151 8.59326 111.868 9.19066 111.734L9.49141 113.521L10.049 111.644C10.8232 111.656 11.5737 111.913 12.1922 112.378C12.8106 112.844 13.2651 113.494 13.4898 114.235C13.7146 114.975 13.6981 115.768 13.4427 116.499C13.1873 117.23 12.7063 117.86 12.069 118.3C11.4317 118.739 10.6711 118.965 9.89711 118.944C9.12311 118.923 8.37573 118.657 7.76286 118.184C7.14999 117.711 6.70335 117.056 6.48743 116.313C6.2715 115.57 6.29746 114.777 6.56156 114.049V114.049Z" stroke="#3F3D56" stroke-miterlimit="10"/>
<path d="M9.09773 133.995C9.94089 134.301 10.8671 134.286 11.6999 133.953C12.5326 133.62 13.2136 132.992 13.6132 132.189C14.0127 131.387 14.1027 130.465 13.8662 129.6C13.6296 128.735 13.0829 127.988 12.3304 127.5L11.902 128.942L11.5981 127.134C11.5951 127.133 11.592 127.132 11.5889 127.131C11.1379 126.967 10.659 126.893 10.1795 126.915C9.7001 126.936 9.22954 127.051 8.79475 127.254C8.35996 127.457 7.96945 127.744 7.64555 128.098C7.32165 128.452 7.0707 128.866 6.90705 129.317C6.7434 129.768 6.67025 130.247 6.69179 130.726C6.71333 131.205 6.82913 131.675 7.03258 132.11C7.23602 132.544 7.52312 132.934 7.87747 133.258C8.23182 133.581 8.64647 133.832 9.09773 133.995Z" fill="#57B894"/>
<path d="M9.27146 133.342C10.1146 133.647 11.0408 133.632 11.8736 133.299C12.7063 132.966 13.3874 132.339 13.7869 131.536C14.1864 130.733 14.2765 129.812 14.0399 128.947C13.8033 128.082 13.2567 127.334 12.5041 126.847L12.0757 128.289L11.7719 126.481C11.7689 126.48 11.7658 126.478 11.7626 126.477C11.3117 126.314 10.833 126.241 10.3538 126.262C9.87462 126.284 9.40436 126.399 8.96986 126.602C8.09235 127.012 7.41379 127.754 7.08344 128.665C6.7531 129.575 6.79804 130.579 7.20837 131.456C7.6187 132.333 8.36082 133.012 9.27146 133.342V133.342Z" stroke="#3F3D56" stroke-miterlimit="10"/>
<path d="M5.295 140.059C5.43998 140.883 5.86419 141.633 6.49649 142.182C7.1288 142.731 7.93074 143.046 8.76782 143.074C9.60491 143.102 10.4262 142.842 11.0941 142.337C11.7619 141.831 12.2356 141.112 12.4357 140.299C12.6359 139.486 12.5503 138.629 12.1933 137.872C11.8363 137.114 11.2297 136.503 10.4751 136.139C9.72054 135.776 8.86392 135.683 8.04893 135.876C7.23393 136.069 6.51012 136.536 5.99889 137.2L7.62631 139.648L5.40264 138.348C5.23022 138.902 5.19331 139.488 5.295 140.059Z" fill="#57B894"/>
<path d="M5.4454 139.575C5.59037 140.399 6.01458 141.149 6.64688 141.698C7.27919 142.247 8.08113 142.562 8.91821 142.59C9.7553 142.619 10.5766 142.358 11.2444 141.853C11.9123 141.348 12.386 140.628 12.5861 139.815C12.7863 139.002 12.7007 138.145 12.3437 137.388C11.9867 136.631 11.3801 136.019 10.6255 135.656C9.87093 135.292 9.01431 135.199 8.19932 135.392C7.38432 135.585 6.66051 136.053 6.14928 136.716L7.7767 139.164L5.55303 137.865C5.38061 138.418 5.3437 139.004 5.4454 139.575V139.575Z" stroke="#3F3D56" stroke-miterlimit="10"/>
<path d="M128.474 91.0839C130.982 91.0839 133.015 88.4538 133.015 85.2095C133.015 81.9652 130.982 79.3351 128.474 79.3351C125.966 79.3351 123.933 81.9652 123.933 85.2095C123.933 88.4538 125.966 91.0839 128.474 91.0839Z" fill="#2F2E41"/>
<path d="M153.183 91.2174C155.691 91.2174 157.725 88.5873 157.725 85.343C157.725 82.0987 155.691 79.4686 153.183 79.4686C150.675 79.4686 148.642 82.0987 148.642 85.343C148.642 88.5873 150.675 91.2174 153.183 91.2174Z" fill="#2F2E41"/>
<path d="M149.711 102.699C149.711 105.353 146.003 107.505 141.43 107.505C136.857 107.505 133.149 105.353 133.149 102.699C133.149 100.4 135.93 98.4776 139.645 98.0076C140.237 97.9297 140.833 97.8913 141.43 97.8928C142.43 97.8896 143.427 97.9971 144.403 98.2133C147.507 98.9048 149.711 100.654 149.711 102.699Z" fill="#2F2E41"/>
<path d="M129.543 89.7488C132.051 89.7488 134.084 87.1188 134.084 83.8744C134.084 80.6301 132.051 78 129.543 78C127.035 78 125.001 80.6301 125.001 83.8744C125.001 87.1188 127.035 89.7488 129.543 89.7488Z" stroke="#3F3D56" stroke-miterlimit="10"/>
<path d="M154.252 89.8823C156.76 89.8823 158.793 87.2523 158.793 84.0079C158.793 80.7636 156.76 78.1335 154.252 78.1335C151.744 78.1335 149.711 80.7636 149.711 84.0079C149.711 87.2523 151.744 89.8823 154.252 89.8823Z" stroke="#3F3D56" stroke-miterlimit="10"/>
<path d="M142.498 106.17C147.072 106.17 150.779 104.019 150.779 101.364C150.779 98.7096 147.072 96.5577 142.498 96.5577C137.925 96.5577 134.217 98.7096 134.217 101.364C134.217 104.019 137.925 106.17 142.498 106.17Z" stroke="#3F3D56" stroke-miterlimit="10"/>
<path d="M144.502 98.6138C144.504 98.9496 144.378 99.2735 144.149 99.5195C144.041 99.6374 143.91 99.7316 143.764 99.7963C143.618 99.861 143.46 99.8948 143.3 99.8955H140.628C140.299 99.884 139.988 99.7428 139.763 99.5026C139.538 99.2624 139.417 98.9429 139.426 98.6138C139.425 98.3535 139.501 98.0986 139.645 97.8818C140.237 97.7987 140.833 97.7577 141.43 97.7593C142.431 97.7561 143.429 97.8708 144.403 98.1011C144.469 98.264 144.502 98.4381 144.502 98.6138Z" fill="white"/>
<path d="M129.543 83.6074C130.28 83.6074 130.878 83.0096 130.878 82.2723C130.878 81.5349 130.28 80.9372 129.543 80.9372C128.805 80.9372 128.207 81.5349 128.207 82.2723C128.207 83.0096 128.805 83.6074 129.543 83.6074Z" fill="white"/>
<path d="M154.385 83.6074C155.123 83.6074 155.721 83.0096 155.721 82.2723C155.721 81.5349 155.123 80.9372 154.385 80.9372C153.648 80.9372 153.05 81.5349 153.05 82.2723C153.05 83.0096 153.648 83.6074 154.385 83.6074Z" fill="white"/>
<path opacity="0.3" d="M155.721 96.1572C156.459 96.1572 157.057 95.5595 157.057 94.8221C157.057 94.0848 156.459 93.4871 155.721 93.4871C154.983 93.4871 154.385 94.0848 154.385 94.8221C154.385 95.5595 154.983 96.1572 155.721 96.1572Z" fill="#3B6978"/>
<path opacity="0.3" d="M123.132 96.1572C123.869 96.1572 124.467 95.5595 124.467 94.8221C124.467 94.0848 123.869 93.4871 123.132 93.4871C122.394 93.4871 121.796 94.0848 121.796 94.8221C121.796 95.5595 122.394 96.1572 123.132 96.1572Z" fill="#3B6978"/>
</g>
<defs>
<clipPath id="clip0">
<rect width="287" height="156" fill="white"/>
</clipPath>
</defs>
</svg>
