<svg width="24" height="41" viewBox="0 0 24 41" fill="none" xmlns="http://www.w3.org/2000/svg">
<path fill-rule="evenodd" clip-rule="evenodd" d="M3.60016 0H20.3965C22.3776 0 24 1.64494 24 3.65023V37.3464C24 39.3551 22.3776 40.9967 20.3998 40.9967H3.60346C1.62238 41 0 39.3551 0 37.3498V3.65356C0 1.64494 1.62238 0 3.60016 0ZM11.9984 33.3993C13.2851 33.3993 14.3315 34.457 14.3315 35.7649C14.3315 37.0695 13.2851 38.1305 11.9984 38.1305C10.7083 38.1305 9.66516 37.0728 9.66516 35.7649C9.66516 34.4603 10.7116 33.3993 11.9984 33.3993ZM8.28301 2.95622H15.717C15.7696 2.95622 15.8157 3.00293 15.8157 3.05631V4.15739C15.8157 4.21077 15.7696 4.25749 15.717 4.25749H8.28301C8.23036 4.25749 8.18429 4.21411 8.18429 4.15739V3.05631C8.18429 2.99959 8.22707 2.95622 8.28301 2.95622ZM3.17565 7.18368H20.8244C21.1469 7.18368 21.4101 7.45394 21.4101 7.77759V31.137C21.4101 31.4607 21.1436 31.731 20.8244 31.731H3.17565C2.85644 31.731 2.58988 31.464 2.58988 31.137V7.77425C2.58988 7.4506 2.85315 7.18368 3.17565 7.18368Z" fill="#2C3E50"/>
</svg>
