<svg width="46" height="35" viewBox="0 0 46 35" fill="none" xmlns="http://www.w3.org/2000/svg">
<g clip-path="url(#clip0)">
<path fill-rule="evenodd" clip-rule="evenodd" d="M1.16797 0H39.0371C39.681 0 40.2088 0.520944 40.2088 1.16096V4.13406H37.7269V3.21497C37.7269 2.64937 37.2664 2.18797 36.6937 2.18797H3.51888C2.94987 2.18797 2.48193 2.64937 2.48568 3.21497V22.769C2.48568 23.3309 2.94987 23.796 3.51888 23.796H28.9409V28.6519H1.16797C0.524089 28.6519 0 28.1273 0 27.4872V1.16096C0 0.520944 0.524089 0 1.16797 0ZM33.8861 7.93695H44.54C45.3449 7.93695 46.0037 8.59186 46.0037 9.39188V30.6538C46.0037 31.4539 45.3449 32.1088 44.54 32.1088H33.8861C33.0812 32.1088 32.4224 31.4539 32.4224 30.6538V9.38816C32.4224 8.59186 33.0812 7.93695 33.8861 7.93695ZM42.8068 13.9539H43.8662V14.5567H42.8068V13.9539ZM39.2093 26.0881C40.0853 26.0881 40.8003 26.7951 40.8003 27.6696C40.8003 28.544 40.089 29.251 39.2093 29.251C38.3333 29.251 37.6183 28.544 37.6183 27.6696C37.6221 26.7989 38.3333 26.0881 39.2093 26.0881ZM34.4027 12.5771H44.0197C44.1882 12.5771 44.3229 12.7148 44.3229 12.8785V14.5232C44.3229 14.6906 44.1844 14.8246 44.0197 14.8246H34.4027C34.2342 14.8246 34.0994 14.6869 34.0994 14.5232V12.8785C34.0994 12.7148 34.2342 12.5771 34.4027 12.5771ZM25.4108 30.2557C25.437 32.079 26.1969 33.7162 28.2446 35H12.4359C14.0755 33.8204 14.8055 32.3878 14.798 30.2557H25.4108ZM20.1063 24.7337C20.9373 24.7337 21.6074 25.4035 21.6074 26.2258C21.6074 27.0482 20.9336 27.7179 20.1063 27.7179C19.279 27.7179 18.6051 27.0519 18.6051 26.2258C18.6051 25.3997 19.2752 24.7337 20.1063 24.7337Z" fill="#2C3E50"/>
</g>
<defs>
<clipPath id="clip0">
<rect width="46" height="35" fill="white"/>
</clipPath>
</defs>
</svg>
