<svg width="48" height="37" viewBox="0 0 48 37" fill="none" xmlns="http://www.w3.org/2000/svg">
<g clip-path="url(#clip0)">
<path d="M0.972368 26.9745C-0.828413 28.1679 -0.22685 30.4342 3.60909 31.511C7.56612 32.825 11.8825 33.1826 16.0817 32.4673C16.32 32.4673 16.5622 32.3468 16.6833 32.3468V28.2845L12.6052 29.5984C11.0466 30.0766 9.48799 30.1971 7.9294 29.8356C6.73018 29.4779 6.96846 28.7627 8.40987 28.164L16.6833 25.299V20.8868L5.16768 24.8248C3.73018 25.3029 2.28877 26.0182 0.972368 26.9745ZM28.7927 9.06924V20.6458C33.7107 23.0327 37.5466 20.6458 37.5466 14.4416C37.5466 8.11683 35.2692 5.25184 28.6716 2.9855C25.195 1.78819 21.5974 0.715276 17.9997 0V34.4926L26.3942 37V7.99632C26.3942 6.68239 26.3942 5.72999 27.3552 6.08762C28.6755 6.44526 28.7927 7.75919 28.7927 9.06924ZM44.3864 24.2261C40.9099 23.0327 37.1911 22.5545 33.5935 22.9122C31.6755 23.0327 29.8747 23.5108 28.195 24.1056L27.8357 24.2261V28.8832L35.6325 26.0182C37.1911 25.54 38.7497 25.4195 40.3083 25.781C41.5075 26.1387 41.2692 26.854 39.8278 27.4526L27.8357 31.8687V36.4052L44.3864 30.3176C45.5857 29.8395 46.6638 29.2447 47.6247 28.2884C48.4646 27.0911 48.1052 25.4195 44.3864 24.2261Z" fill="#2C3E50"/>
</g>
<defs>
<clipPath id="clip0">
<rect width="48" height="37" fill="white"/>
</clipPath>
</defs>
</svg>
