<svg width="171" height="91" viewBox="0 0 171 91" fill="none" xmlns="http://www.w3.org/2000/svg">
<g clip-path="url(#clip0)">
<path d="M169.893 90.7649H74.6775C74.3841 90.7645 74.1028 90.6476 73.8954 90.4399C73.6879 90.2321 73.5712 89.9505 73.5708 89.6566V1.10824C73.5712 0.814431 73.6879 0.53277 73.8954 0.325019C74.1028 0.117267 74.3841 0.000384525 74.6775 0H169.893C170.187 0.000384525 170.468 0.117267 170.675 0.325019C170.883 0.53277 171 0.814431 171 1.10824V89.6564C171 89.9503 170.883 90.232 170.675 90.4397C170.468 90.6475 170.187 90.7644 169.893 90.7647V90.7649ZM74.6775 0.442422C74.5016 0.442806 74.3331 0.512924 74.2088 0.637432C74.0845 0.761941 74.0144 0.9307 74.0141 1.10678V89.6564C74.0144 89.8325 74.0845 90.0013 74.2088 90.1258C74.3331 90.2503 74.5016 90.3204 74.6775 90.3208H169.893C170.069 90.3205 170.238 90.2504 170.362 90.1259C170.486 90.0013 170.556 89.8325 170.557 89.6564V1.10824C170.556 0.932154 170.486 0.763395 170.362 0.638886C170.238 0.514378 170.069 0.44426 169.893 0.443876L74.6775 0.442422Z" fill="#E6E6E6"/>
<path d="M119.669 23.0096C119.47 23.0096 119.278 23.0889 119.138 23.23C118.997 23.3711 118.917 23.5624 118.917 23.762C118.917 23.9615 118.997 24.1529 119.138 24.294C119.278 24.4351 119.47 24.5144 119.669 24.5144H160.896C161.095 24.5144 161.286 24.4351 161.427 24.294C161.568 24.1529 161.647 23.9615 161.647 23.762C161.647 23.5624 161.568 23.3711 161.427 23.23C161.286 23.0889 161.095 23.0096 160.896 23.0096H119.669Z" fill="#E6E6E6"/>
<path d="M119.669 27.5243C119.47 27.5243 119.278 27.6036 119.138 27.7447C118.997 27.8858 118.917 28.0772 118.917 28.2767C118.917 28.4763 118.997 28.6676 119.138 28.8087C119.278 28.9498 119.47 29.0291 119.669 29.0291H140.716C140.915 29.0291 141.106 28.9498 141.247 28.8087C141.388 28.6676 141.467 28.4763 141.467 28.2767C141.467 28.0772 141.388 27.8858 141.247 27.7447C141.106 27.6036 140.915 27.5243 140.716 27.5243H119.669Z" fill="#E6E6E6"/>
<path d="M83.6351 49.3764C83.4359 49.3764 83.2448 49.4556 83.1039 49.5967C82.963 49.7378 82.8838 49.9292 82.8838 50.1288C82.8838 50.3283 82.963 50.5197 83.1039 50.6608C83.2448 50.8019 83.4359 50.8812 83.6351 50.8812H160.936C161.135 50.8812 161.326 50.8019 161.467 50.6608C161.608 50.5197 161.687 50.3283 161.687 50.1288C161.687 49.9292 161.608 49.7378 161.467 49.5967C161.326 49.4556 161.135 49.3764 160.936 49.3764H83.6351Z" fill="#E6E6E6"/>
<path d="M83.6351 53.8911C83.4359 53.8911 83.2448 53.9704 83.1039 54.1115C82.963 54.2526 82.8838 54.444 82.8838 54.6435C82.8838 54.8431 82.963 55.0344 83.1039 55.1755C83.2448 55.3166 83.4359 55.3959 83.6351 55.3959H140.756C140.956 55.3959 141.147 55.3166 141.288 55.1755C141.428 55.0344 141.508 54.8431 141.508 54.6435C141.508 54.444 141.428 54.2526 141.288 54.1115C141.147 53.9704 140.956 53.8911 140.756 53.8911H83.6351Z" fill="#E6E6E6"/>
<path d="M83.6351 58.3037C83.4359 58.3037 83.2448 58.383 83.1039 58.5241C82.963 58.6652 82.8838 58.8566 82.8838 59.0561C82.8838 59.2556 82.963 59.447 83.1039 59.5881C83.2448 59.7292 83.4359 59.8085 83.6351 59.8085H160.936C161.135 59.8085 161.326 59.7292 161.467 59.5881C161.608 59.447 161.687 59.2556 161.687 59.0561C161.687 58.8566 161.608 58.6652 161.467 58.5241C161.326 58.383 161.135 58.3037 160.936 58.3037H83.6351Z" fill="#E6E6E6"/>
<path d="M83.6351 62.8185C83.4359 62.8185 83.2448 62.8978 83.1039 63.0389C82.963 63.18 82.8838 63.3713 82.8838 63.5709C82.8838 63.7704 82.963 63.9618 83.1039 64.1029C83.2448 64.244 83.4359 64.3233 83.6351 64.3233H140.756C140.956 64.3233 141.147 64.244 141.288 64.1029C141.428 63.9618 141.508 63.7704 141.508 63.5709C141.508 63.3713 141.428 63.18 141.288 63.0389C141.147 62.8978 140.956 62.8185 140.756 62.8185H83.6351Z" fill="#E6E6E6"/>
<path d="M109.25 38.8616H49.4856C49.1922 38.8613 48.9109 38.7444 48.7034 38.5367C48.4959 38.3289 48.3792 38.0472 48.3789 37.7534V11.489C48.3792 11.1951 48.4959 10.9135 48.7034 10.7057C48.9109 10.4979 49.1922 10.3811 49.4856 10.3807H109.25C109.543 10.3811 109.824 10.4979 110.032 10.7057C110.239 10.9135 110.356 11.1951 110.356 11.489V37.7534C110.356 38.0472 110.239 38.3289 110.032 38.5367C109.824 38.7444 109.543 38.8613 109.25 38.8616Z" fill="#3B6978"/>
<path d="M160.458 80.3842H137.804C137.511 80.3838 137.23 80.267 137.022 80.0592C136.815 79.8514 136.698 79.5698 136.698 79.2759V75.6413C136.698 75.3474 136.815 75.0657 137.022 74.858C137.23 74.6502 137.511 74.5333 137.804 74.533H160.458C160.751 74.5333 161.033 74.6502 161.24 74.858C161.448 75.0657 161.564 75.3474 161.565 75.6413V79.2759C161.564 79.5698 161.448 79.8514 161.24 80.0592C161.033 80.267 160.751 80.3838 160.458 80.3842Z" fill="#3B6978"/>
<path d="M26.2127 44.4519C25.2365 43.722 24.9499 42.3582 25.5728 41.4057C25.6346 41.3124 25.7046 41.2248 25.7819 41.1439L25.8443 21.7405L28.7245 22.2789L28.851 41.3627C29.5072 42.1249 29.6397 43.2358 29.1082 44.0485C28.4854 45.0011 27.189 45.1816 26.2127 44.4519Z" fill="#FFB8B8"/>
<path d="M41.1911 87.8826L44.1603 87.8824L45.573 76.4135L41.1907 76.4137L41.1911 87.8826Z" fill="#FFB8B8"/>
<path d="M40.4338 86.9118L46.2814 86.9116H46.2817C47.27 86.9116 48.2178 87.3048 48.9166 88.0046C49.6155 88.7044 50.0081 89.6536 50.0082 90.6433V90.7645L40.434 90.7649L40.4338 86.9118Z" fill="#2F2E41"/>
<path d="M13.5807 87.8826L16.5502 87.8824L17.9627 76.4135L13.5803 76.4137L13.5807 87.8826Z" fill="#FFB8B8"/>
<path d="M12.8235 86.9118L18.6711 86.9116H18.6713C19.6596 86.9116 20.6074 87.3048 21.3063 88.0046C22.0051 88.7044 22.3978 89.6536 22.3979 90.6433V90.7645L12.8237 90.7649L12.8235 86.9118Z" fill="#2F2E41"/>
<path d="M41.0179 84.6792L40.769 83.1839C40.5134 83.0944 40.2962 82.9197 40.1536 82.6892C39.8863 82.2664 39.8438 81.6713 40.0269 80.9202L38.0235 63.9775L27.564 53.1102L20.854 69.3174L18.1978 82.1426V83.9956L12.8944 84.6775L13.1357 82.931C12.9328 82.8439 12.7638 82.6931 12.6542 82.5013C12.3495 81.9934 12.3536 81.2062 12.6665 80.1619L12.6801 80.1165L12.6628 79.9606C12.6506 79.8512 12.7304 69.3754 15.8402 64.1851L18.9547 48.4269C18.8738 48.2049 18.4745 46.9128 19.2068 44.7295C19.9296 42.5748 21.9509 39.1036 27.4761 34.8032L27.4951 34.7885L27.5186 34.7835C27.5798 34.7709 33.6739 33.5576 36.8255 37.6848L36.8469 37.7127V37.7479C36.8469 38.003 36.8414 43.941 36.3725 45.2585L43.8512 59.0291C43.9968 59.1836 45.3043 60.6956 44.8399 64.6708L46.048 78.2213C46.1862 78.4855 47.4368 80.9744 46.0585 81.9596L46.3056 83.6706L41.0179 84.6792Z" fill="#2F2E41"/>
<path d="M28.5069 27.737C27.1026 27.737 25.2365 27.24 24.0943 24.949L24.0718 24.904L26.886 18.9302C27.2505 18.1562 27.9031 17.5559 28.7041 17.2577C29.5051 16.9594 30.3908 16.9869 31.1717 17.3343C31.9527 17.6816 32.5669 18.3213 32.8829 19.1164C33.1989 19.9115 33.1917 20.7988 32.8627 21.5886L30.4296 27.4294L30.3873 27.4451C29.7796 27.6406 29.1451 27.7391 28.5069 27.737Z" fill="#3B6978"/>
<path d="M36.3021 39.5809L27.4304 35.3857L28.6499 20.4871L30.8731 17.766L31.3038 17.6737C33.2831 17.2493 35.3398 17.3634 37.2602 18.004L37.3024 18.0181L40.9543 25.8195C40.9772 25.8584 43.6107 30.5146 39.9701 32.9695L36.3021 39.5809Z" fill="#3B6978"/>
<path d="M48.4987 34.8329C48.3929 34.8771 48.2906 34.9296 48.193 34.9898L38.8444 30.7075L38.6046 28.2181L34.8056 28.0895L34.8025 32.5378C34.8022 32.8972 34.9184 33.2469 35.1335 33.5346C35.3487 33.8222 35.6512 34.0322 35.9956 34.133L47.2217 37.4184C47.337 37.8456 47.5794 38.2275 47.9168 38.5133C48.2541 38.7991 48.6703 38.9753 49.1101 39.0185C49.5499 39.0616 49.9923 38.9697 50.3786 38.7549C50.7649 38.54 51.0768 38.2125 51.2727 37.8159C51.4686 37.4193 51.5393 36.9723 51.4753 36.5345C51.4114 36.0967 51.2158 35.6887 50.9147 35.3649C50.6136 35.041 50.2211 34.8167 49.7895 34.7217C49.358 34.6266 48.9077 34.6654 48.4987 34.8329L48.4987 34.8329Z" fill="#FFB8B8"/>
<path d="M37.0639 29.2805C35.9987 29.2805 34.7964 28.9116 33.6425 27.756L33.6069 27.7204L34.3866 21.1616C34.4876 20.3118 34.9167 19.5354 35.5821 18.9984C36.2475 18.4615 37.0963 18.2066 37.947 18.2884C38.7976 18.3701 39.5825 18.7821 40.1338 19.436C40.685 20.0899 40.9588 20.9339 40.8965 21.7874L40.4362 28.0991L40.401 28.1274C40.3784 28.1455 38.932 29.2805 37.0639 29.2805Z" fill="#3B6978"/>
<path d="M39.9146 12.576C41.4904 9.68922 40.431 6.06978 37.5483 4.49173C34.6656 2.91369 31.0512 3.97461 29.4754 6.86137C27.8995 9.74813 28.959 13.3676 31.8417 14.9456C34.7244 16.5237 38.3387 15.4627 39.9146 12.576Z" fill="#FFB8B8"/>
<path d="M40.749 6.56244C40.4538 4.84321 39.0756 3.41801 37.4339 2.83487C35.792 2.25174 33.9406 2.44138 32.3329 3.1129C32.0651 3.22524 31.8033 3.35129 31.5485 3.49055C30.9609 2.36886 29.5202 1.71829 28.2024 1.78851C26.6105 1.87333 25.1728 2.71684 23.7902 3.51183C22.4076 4.30681 20.9239 5.09778 19.33 5.06076C16.4497 4.99389 14.3069 2.31976 11.5372 1.52504C10.3042 1.17127 8.9923 1.20706 7.7804 1.62752C6.5685 2.04797 5.51565 2.83262 4.76551 3.8744C4.01536 4.91618 3.60445 6.16437 3.58884 7.44864C3.57323 8.73292 3.95368 9.99075 4.67828 11.0505C5.86004 8.92971 8.63529 8.21341 11.0434 8.50212C13.4514 8.79084 15.6956 9.84785 18.0547 10.4109C20.4139 10.9739 23.1461 10.9498 24.9735 9.35305C26.0101 8.44737 26.6187 7.15287 27.521 6.11312C28.1315 5.40983 29.0004 4.81599 29.8883 4.67621C29.0138 5.4649 28.3461 6.45667 27.944 7.56432C27.232 9.58997 27.6127 12.0221 29.0896 13.5791C30.673 15.2483 33.1581 15.6932 35.4569 15.6662L35.505 15.6172C34.8012 14.5622 34.2457 13.0993 35.0206 12.0954C35.7856 11.1046 37.2944 11.2506 38.4659 10.8121C40.0977 10.2014 41.0441 8.28168 40.749 6.56244Z" fill="#2F2E41"/>
<path d="M56.806 91H0.207321C0.152336 91 0.099603 90.9781 0.0607228 90.9392C0.0218425 90.9002 0 90.8474 0 90.7924C0 90.7373 0.0218425 90.6845 0.0607228 90.6456C0.099603 90.6067 0.152336 90.5848 0.207321 90.5848H56.806C56.861 90.5848 56.9137 90.6067 56.9526 90.6456C56.9915 90.6845 57.0133 90.7373 57.0133 90.7924C57.0133 90.8474 56.9915 90.9002 56.9526 90.9392C56.9137 90.9781 56.861 91 56.806 91Z" fill="#CCCCCC"/>
<path d="M76.6861 19.5924C76.4265 19.5932 76.2165 19.9307 76.217 20.3463C76.2176 20.7606 76.4272 21.0963 76.6861 21.0972H98.8424C99.1019 21.0963 99.3119 20.7588 99.3114 20.3433C99.3109 19.9289 99.1012 19.5932 98.8424 19.5924H76.6861Z" fill="white"/>
<path d="M76.6861 23.9522C76.4265 23.9531 76.2165 24.2906 76.217 24.7061C76.2176 25.1205 76.4272 25.4562 76.6861 25.457H98.8424C99.1019 25.4562 99.3119 25.1187 99.3114 24.7031C99.3109 24.2888 99.1012 23.9531 98.8424 23.9522H76.6861Z" fill="white"/>
<path d="M76.6861 28.2594C76.4265 28.2602 76.2165 28.5977 76.217 29.0133C76.2176 29.4276 76.4272 29.7634 76.6861 29.7642H86.2199C86.4795 29.7633 86.6895 29.4258 86.689 29.0103C86.6885 28.5959 86.4788 28.2602 86.2199 28.2594H76.6861Z" fill="white"/>
<path d="M65.4361 30.6419C68.7566 30.6419 71.4484 27.9463 71.4484 24.6212C71.4484 21.296 68.7566 18.6004 65.4361 18.6004C62.1156 18.6004 59.4238 21.296 59.4238 24.6212C59.4238 27.9463 62.1156 30.6419 65.4361 30.6419Z" fill="white"/>
</g>
<defs>
<clipPath id="clip0">
<rect width="171" height="91" fill="white"/>
</clipPath>
</defs>
</svg>
