<svg width="36" height="36" viewBox="0 0 36 36" fill="none" xmlns="http://www.w3.org/2000/svg">
<g clip-path="url(#clip0)">
<path d="M17.9999 14.4361C17.9999 14.4361 18.0447 14.4361 17.9999 14.4361C23.4312 18.5606 32.6332 28.6927 29.8501 31.562C26.6631 34.3417 22.5334 36.0005 17.9999 36.0005C13.4663 36.0005 9.29149 34.3417 6.14963 31.562C3.32163 28.6927 12.5685 18.5607 17.955 14.4809C17.955 14.4361 17.9999 14.4361 17.9999 14.4361ZM27.3814 2.64518C24.6431 0.986298 21.6356 -1.52588e-05 17.9999 -1.52588e-05C14.3638 -1.52588e-05 11.3566 0.986298 8.61835 2.64518C8.57347 2.64518 8.57348 2.69 8.57348 2.73482C8.57348 2.77964 8.61835 2.77964 8.66323 2.77964C12.1644 2.01743 17.4611 5.02119 17.955 5.3352H18.0447C18.5384 5.02146 23.8354 2.0177 27.3365 2.77964C27.3814 2.77964 27.4263 2.77964 27.4263 2.73482C27.4263 2.69 27.4263 2.64518 27.3814 2.64518ZM5.38647 5.15565C5.34159 5.15565 5.34159 5.20047 5.29672 5.20047C2.01996 8.47315 0 13.0013 0 17.9774C0 22.0572 1.3917 25.868 3.68091 28.8717C3.68091 28.9165 3.72579 28.9165 3.77066 28.9165C3.81554 28.9165 3.81554 28.8717 3.77066 28.8269C2.37897 24.5679 9.42639 14.3014 13.0624 9.9973L13.1073 9.95249C13.1073 9.90767 13.1073 9.90766 13.0624 9.90766C7.54133 4.43826 5.70087 5.02092 5.38674 5.15538L5.38647 5.15565ZM22.9376 9.86311L22.8927 9.90794C22.8927 9.90794 22.8927 9.95275 22.9376 9.95275C26.5736 14.2566 33.5759 24.5233 32.2293 28.7823V28.872C32.2742 28.872 32.3191 28.872 32.3191 28.8272C34.6083 25.8234 36 22.0126 36 17.9329C36 12.9565 33.98 8.4286 30.6584 5.15592C30.6135 5.1111 30.6135 5.1111 30.5687 5.1111C30.2994 5.02146 28.4589 4.43853 22.9378 9.86338L22.9376 9.86311Z" fill="#2C3E50"/>
</g>
<defs>
<clipPath id="clip0">
<rect width="36" height="36" fill="white"/>
</clipPath>
</defs>
</svg>
