<svg width="44" height="44" viewBox="0 0 44 44" fill="none" xmlns="http://www.w3.org/2000/svg">
<path d="M22 29.3334C26.0501 29.3334 29.3334 26.0502 29.3334 22.0001C29.3334 17.95 26.0501 14.6667 22 14.6667C17.9499 14.6667 14.6667 17.95 14.6667 22.0001C14.6667 26.0502 17.9499 29.3334 22 29.3334Z" stroke="#EEEEEE" stroke-width="2.75" stroke-linecap="round" stroke-linejoin="round"/>
<path d="M29.3333 22V24.75C29.3333 25.9655 29.8162 27.1313 30.6758 27.9909C31.5353 28.8504 32.7011 29.3333 33.9167 29.3333C35.1322 29.3333 36.298 28.8504 37.1576 27.9909C38.0171 27.1313 38.5 25.9655 38.5 24.75V22C38.5046 18.4545 37.367 15.0018 35.2557 12.1535C33.1445 9.30513 30.1719 7.21258 26.7784 6.18581C23.3848 5.15905 19.7508 5.25269 16.4146 6.45286C13.0785 7.65303 10.2176 9.8959 8.25588 12.8492C6.29414 15.8025 5.33587 19.3092 5.52301 22.8497C5.71016 26.3902 7.03277 29.7763 9.29491 32.5064C11.5571 35.2364 14.6384 37.1652 18.0825 38.007C21.5266 38.8487 25.1503 38.5588 28.4167 37.18" stroke="#EEEEEE" stroke-width="2.75" stroke-linecap="round" stroke-linejoin="round"/>
</svg>
