<svg width="51" height="40" viewBox="0 0 51 40" fill="none" xmlns="http://www.w3.org/2000/svg">
<g clip-path="url(#clip0)">
<path d="M40.9937 37.5225L40.9716 39.976H39.2267L39.2487 37.5225H38.964C38.9436 37.5225 38.9192 37.526 38.8948 37.526H11.5245C11.4919 37.5295 11.4594 37.5295 11.4268 37.5295H11.4146H10.6947L10.6727 39.976H8.92773L8.94972 37.5295H7.94504L7.94507 37.526C6.96076 37.5225 6.15285 37.3533 5.54677 36.902C4.92453 36.4402 4.57692 35.7422 4.5536 34.7164C4.55369 34.7058 4.55382 34.6917 4.55392 34.6811L4.6568 23.6824C3.86948 23.485 3.18028 23.2312 2.59744 22.9104C1.79603 22.4698 1.19911 21.9057 0.835297 21.2007C-0.392083 18.8247 0.256341 16.8259 1.74495 15.4793C2.4216 14.8659 3.27592 14.397 4.20601 14.0974C5.13203 13.7977 6.13381 13.6673 7.10534 13.7343C7.83705 13.7836 8.55561 13.9387 9.21618 14.2102L9.28453 6.60274C9.31265 3.47234 9.8683 1.84017 11.2676 0.927134C12.6342 0.0352523 14.595 0 17.5643 0H33.1103C36.34 0 38.2995 0.109282 39.584 1.11045C40.8685 2.11161 41.2313 3.82839 41.2028 7.00462L41.1355 14.4992C42.0255 14.1326 43.0032 13.9634 43.9753 13.9705C44.9229 13.9775 45.861 14.1502 46.7042 14.464C47.5596 14.7848 48.3282 15.2536 48.9289 15.8494C50.2431 17.1643 50.7062 19.0433 49.4012 21.2289C49.0047 21.8952 48.4059 22.4486 47.621 22.8893C47.0323 23.2171 46.3425 23.4815 45.5516 23.6824L45.4527 34.6917H45.4486L45.4485 34.7093C45.4067 35.7387 45.0466 36.4332 44.416 36.895C43.8019 37.3427 42.9909 37.5154 42.0065 37.5189L42.0065 37.5225H40.9937ZM10.9468 15.3488C11.479 15.8776 11.9082 16.5474 12.1897 17.3617C12.3245 17.7495 12.4183 18.1725 12.463 18.6308C12.5079 19.0715 12.5036 19.5438 12.4461 20.055L12.428 22.0749H37.7971L37.8155 20.0233C37.7712 19.5262 37.7591 19.0644 37.7995 18.6414C37.8445 18.1584 37.9543 17.7107 38.1491 17.3053C38.4683 16.6355 38.8882 16.075 39.3804 15.6167L39.4578 7.00462C39.4822 4.2902 39.2508 2.88363 38.4147 2.23147C37.5826 1.58283 35.9033 1.51232 33.0968 1.51232H17.5507C14.9394 1.51232 13.2227 1.537 12.3021 2.13629C11.4061 2.71795 11.0487 4.00818 11.0254 6.60627L10.9468 15.3488ZM12.4144 23.5873L12.3916 26.129H37.7607L37.7835 23.5873H12.4144ZM9.59172 16.3253C9.49054 16.2689 9.40175 16.1913 9.33746 16.1032C8.66701 15.5744 7.8275 15.2995 6.96166 15.2395C6.23402 15.1902 5.48881 15.2854 4.7994 15.5075C4.11406 15.7295 3.48866 16.0715 2.99653 16.5192C1.97129 17.4499 1.53967 18.8599 2.42317 20.5767C2.64308 20.9998 3.02229 21.3488 3.5444 21.6378C4.11914 21.9551 4.85727 22.1948 5.73027 22.364C6.11602 22.438 6.40616 22.7412 6.40293 23.1008L6.29478 34.6847C6.30608 35.2381 6.44133 35.5766 6.68377 35.7563C6.94235 35.9502 7.38097 36.0243 7.96263 36.0243L7.96266 36.0207H9.98829C10.0209 36.0172 10.0534 36.0172 10.0859 36.0172H10.5618L10.7094 20.0409C10.7097 20.0127 10.7099 19.988 10.7142 19.9598C10.7628 19.5297 10.7664 19.1349 10.729 18.7753C10.6955 18.4228 10.6252 18.102 10.5221 17.8094C10.312 17.196 9.99098 16.706 9.59172 16.3253ZM39.5374 22.5967C39.5652 22.6707 39.5808 22.7483 39.58 22.8329C39.5793 22.9139 39.5623 22.995 39.5331 23.0691L39.5004 26.7177C39.5161 26.7705 39.5197 26.8305 39.5192 26.8869C39.5187 26.9433 39.51 27.0032 39.4973 27.0561L39.4168 36.0137H42.016L42.0159 36.0172C42.5935 36.0172 43.0335 35.9432 43.2996 35.7493C43.5412 35.573 43.6825 35.2417 43.7077 34.6952H43.7036L43.8078 23.0973C43.8113 22.7165 44.1395 22.4028 44.5589 22.3499C45.4105 22.1807 46.1205 21.9375 46.6805 21.6237C47.1997 21.3311 47.5935 20.9716 47.8495 20.545C48.7704 19.0045 48.485 17.7178 47.6061 16.8435C47.1869 16.424 46.6286 16.0891 46.0002 15.8529C45.3597 15.6132 44.6531 15.4828 43.9455 15.4757C42.2616 15.4652 40.5591 16.1772 39.7589 17.8623C39.6386 18.1161 39.5668 18.4122 39.5395 18.7436C39.5036 19.1173 39.5162 19.5192 39.5571 19.9528C39.5609 19.9739 39.5607 19.9986 39.5605 20.0197H39.5646L39.5414 22.5967H39.5374ZM12.2987 36.0137H37.6719L37.7471 27.6413H12.3739L12.2987 36.0137Z" fill="#C4C4C4"/>
</g>
<defs>
<clipPath id="clip0">
<rect width="49.9817" height="39.9776" fill="white" transform="matrix(1 0 -0.00898428 0.99996 0.359135 0)"/>
</clipPath>
</defs>
</svg>
