<svg width="40" height="33" viewBox="0 0 40 33" fill="none" xmlns="http://www.w3.org/2000/svg">
<g clip-path="url(#clip0)">
<path d="M17.2173 31.2464C17.8488 31.2464 18.3671 31.6384 18.3704 32.1218C18.3737 32.6052 17.8642 32.9973 17.2292 32.9973H2.89124C2.15802 32.9973 1.48991 32.7691 1.00325 32.3985C0.516614 32.0305 0.214957 31.523 0.211111 30.959L0.0139178 2.04102C0.0100721 1.47705 0.304807 0.969483 0.786411 0.598877C1.26801 0.228272 1.92951 0 2.66623 0L35.3977 0C36.1309 0 36.799 0.230957 37.2856 0.598877C37.7723 0.969483 38.074 1.47705 38.0778 2.04102L38.1766 16.5296C38.1799 17.0129 37.6704 17.405 37.0389 17.405C36.4074 17.405 35.8926 17.0129 35.8893 16.5296L35.7905 2.04102C35.7899 1.96314 35.7473 1.89063 35.6768 1.8396C35.6063 1.78589 35.5114 1.75366 35.4131 1.75366H2.67818C2.57645 1.75366 2.48195 1.78589 2.41213 1.83692C2.34586 1.89331 2.30424 1.96314 2.30477 2.04102L2.50196 30.959C2.50249 31.0369 2.54508 31.1094 2.6156 31.1604C2.68613 31.2141 2.78107 31.2464 2.8828 31.2464H17.2173ZM12.0129 15.5547C11.7934 15.2673 11.9457 14.4456 12.4103 14.1555C13.7393 13.5593 15.5789 13.7446 16.8582 13.0571C16.9313 12.9712 17.0111 12.8477 17.0909 12.7107C17.2053 12.5066 17.3125 12.2837 17.3781 12.1306C17.0922 11.8728 16.8446 11.5828 16.6112 11.2981L15.8329 10.3582C15.5501 10.0359 15.4007 9.74048 15.3886 9.49878C15.3843 9.38599 15.4081 9.28126 15.4636 9.18995C15.5191 9.09327 15.6063 9.01539 15.7286 8.95362C15.7846 8.92408 15.8476 8.89991 15.9141 8.88111C15.858 8.37085 15.8361 7.72901 15.8675 7.18921C15.8841 7.06299 15.9148 6.93409 15.9596 6.80518C16.1523 6.26538 16.644 5.83033 17.2559 5.53223C17.5916 5.36841 17.9626 5.24219 18.3479 5.15894C18.5931 5.10523 18.133 4.50635 18.389 4.48487C19.6162 4.38819 21.6041 5.24488 22.465 5.95386C22.8954 6.30835 23.1687 6.78101 23.2326 7.40406L23.194 8.9375C23.4083 8.98853 23.5458 9.09058 23.6031 9.25977C23.6675 9.44776 23.6027 9.70826 23.3946 10.0681C23.3912 10.0735 23.3877 10.0815 23.3807 10.0869L22.5077 11.1961C22.1878 11.6043 21.8608 12.0125 21.435 12.3347C21.4738 12.3777 21.5162 12.4207 21.5551 12.4636C21.7319 12.6597 21.9086 12.8557 22.1343 13.0303C22.1414 13.0357 22.1485 13.0437 22.152 13.0491C23.1696 13.5969 25.6368 13.7312 26.5867 14.134L26.6254 14.1502C27.115 14.4375 27.2715 15.2593 27.0489 15.5466H12.0128L12.0129 15.5547ZM36.03 21.2266C35.8432 21.0896 35.6287 21.0252 35.3832 21.0278C35.1341 21.0305 34.9241 21.1057 34.7532 21.2454L33.3401 22.3787L37.349 25.3274L38.7761 24.1834C38.9471 24.0491 39.016 23.8772 39.0113 23.6892C39.0065 23.5039 38.9176 23.332 38.7413 23.2058L36.03 21.2266ZM29.871 31.198C29.3456 31.3269 28.8203 31.4585 28.2985 31.5901C27.7732 31.7244 27.2479 31.8587 26.7261 31.9929C25.4898 32.3045 24.7963 32.4763 24.6492 32.5086C24.5091 32.5408 24.5868 32.0977 24.8962 31.1685L25.8621 28.26L32.0804 23.3777L36.0858 26.313L29.871 31.198ZM11.3096 25.6094C10.6782 25.6094 10.1597 25.2119 10.1564 24.7205C10.153 24.229 10.6625 23.8316 11.2975 23.8316H19.0892C19.7207 23.8316 20.2391 24.229 20.2424 24.7205C20.2458 25.2119 19.7363 25.6094 19.1013 25.6094H11.3096ZM11.2717 20.053C10.6403 20.053 10.1254 19.6609 10.1221 19.1748C10.1188 18.6914 10.6283 18.2993 11.2598 18.2993H26.7134C27.3448 18.2993 27.8597 18.6914 27.863 19.1748C27.8663 19.6582 27.3568 20.053 26.7253 20.053H11.2717Z" fill="#C4C4C4"/>
</g>
<defs>
<clipPath id="clip0">
<rect width="38.8497" height="33.0008" fill="white" transform="matrix(1 0 0.00681889 0.999977 0 0)"/>
</clipPath>
</defs>
</svg>
