<svg width="44" height="29" viewBox="0 0 44 29" fill="none" xmlns="http://www.w3.org/2000/svg">
<g clip-path="url(#clip0)">
<path fill-rule="evenodd" clip-rule="evenodd" d="M32.5034 0C33.4066 0 34.218 0.41376 34.7984 1.07816C35.3823 1.74257 35.7318 2.66159 35.7147 3.6761C35.6977 4.69061 35.3139 5.60963 34.7112 6.27404C34.1084 6.94242 33.2833 7.3522 32.38 7.3522C31.4767 7.3522 30.6654 6.93844 30.085 6.27404C29.5046 5.60963 29.1516 4.69061 29.1686 3.6761C29.1857 2.66159 29.5695 1.74257 30.1722 1.07816C30.7749 0.41376 31.6001 0 32.5034 0ZM12.3725 1.06623C13.2227 1.06623 13.9813 1.45214 14.527 2.07676C15.0726 2.70138 15.4053 3.5647 15.3893 4.51556C15.3733 5.47039 15.0153 6.32974 14.4451 6.95435C13.8785 7.57897 13.1034 7.96489 12.2568 7.96489C11.4102 7.96489 10.648 7.57897 10.1023 6.95435C9.55666 6.32974 9.22754 5.46641 9.2435 4.51556C9.25952 3.56073 9.61754 2.70138 10.1842 2.07676C10.7472 1.45214 11.5224 1.06623 12.3725 1.06623ZM6.3746 11.0402L8.58714 9.43294C9.08559 9.0709 10.4352 8.86004 11.7496 8.8481C12.9754 8.83617 14.2089 8.99929 14.7376 9.36928L16.9136 10.9925L17.2389 11.2392C17.3159 11.2988 17.3751 11.3545 17.4275 11.4023C17.496 11.3267 17.5825 11.2392 17.6975 11.1397L18.0678 10.8174C18.2583 10.6543 18.4453 10.4872 18.6325 10.3082C18.816 10.1371 19.0033 9.95412 19.1907 9.76315C19.3528 9.60003 19.5043 9.44089 19.6521 9.28573C19.6878 8.84413 19.8616 8.41047 20.1648 8.07628L20.1864 8.05241C20.5327 7.68241 20.975 7.49941 21.4141 7.50736C21.8462 7.51134 22.2681 7.69833 22.5879 8.06435L22.6087 8.08822C22.7824 8.2951 22.9631 8.50198 23.1439 8.70488C23.3212 8.9038 23.509 9.11068 23.711 9.31756C23.9024 9.52046 24.0975 9.71541 24.2857 9.89842C24.4773 10.0894 24.6762 10.2684 24.8717 10.4395C24.9974 10.5509 25.1264 10.6742 25.2557 10.7816C25.3743 10.8891 25.4649 10.9806 25.5379 11.0601C25.5884 11.0084 25.6495 10.9567 25.7248 10.897C25.861 10.8055 25.99 10.718 26.1156 10.6225L28.4751 8.90778C29.0094 8.52187 30.4443 8.2951 31.8436 8.28714C33.1509 8.27521 34.4658 8.44628 35.0258 8.84413L37.3454 10.5708L37.6952 10.8334C37.7756 10.897 37.8419 10.9567 37.8977 11.0084C37.9699 10.9288 38.0635 10.8373 38.1858 10.7299L38.5812 10.3878C38.7824 10.2167 38.9838 10.0337 39.1854 9.8467C39.3832 9.66369 39.5778 9.46874 39.7796 9.26584C39.9886 9.05498 40.1832 8.85208 40.3672 8.65316C40.5512 8.45424 40.7281 8.25531 40.905 8.05639L40.9267 8.03252C41.2624 7.65854 41.7014 7.45962 42.1407 7.45564C42.5694 7.45166 42.9987 7.62274 43.3293 7.97682L43.3537 8.00069C43.684 8.37069 43.8494 8.86004 43.8446 9.35337C43.8399 9.8467 43.6757 10.34 43.3399 10.722C43.1305 10.9607 42.9175 11.1954 42.7047 11.4261C42.4881 11.6649 42.2682 11.8916 42.0556 12.1065C41.8322 12.3332 41.6017 12.56 41.3642 12.7828C41.1302 13.0016 40.8857 13.2204 40.6269 13.4432L40.2675 13.7535C40.2639 13.7575 40.2279 13.7894 40.2244 13.7894C39.3222 14.5691 38.8657 14.963 38.0533 15.0346H38.0392C37.5887 15.0704 37.2357 14.9948 36.8633 14.8118C36.5296 14.6447 36.2043 14.402 35.774 14.0758L35.9122 17.0278H37.5098C37.8711 17.0278 38.1596 17.358 38.1527 17.7678L37.9921 27.34C37.9853 27.7458 37.6857 28.08 37.3244 28.08H8.29198C7.93067 28.08 7.63866 27.7498 7.64554 27.34L7.80608 17.7718C7.81289 17.366 8.1125 17.0318 8.47736 17.0318H9.27791L8.87676 13.4949C8.51458 13.7575 8.11338 14.0241 7.75795 14.3066C7.33115 14.6209 7.00834 14.8596 6.67978 15.0187C6.32623 15.1898 5.99205 15.2614 5.57106 15.2296C5.1784 15.1977 4.87223 15.0784 4.54634 14.8675C4.25547 14.6805 3.9553 14.414 3.56097 14.0599C3.43872 13.9565 3.31314 13.8411 3.1945 13.7337C2.96064 13.5268 2.73741 13.3199 2.5248 13.113C2.30872 12.9022 2.09972 12.6913 1.89781 12.4804C1.70639 12.2775 1.51163 12.0627 1.30992 11.8399C1.11876 11.6211 0.924067 11.4023 0.736523 11.1795C0.434354 10.8214 0.289847 10.3559 0.304675 9.89444C0.315827 9.4409 0.47923 8.99133 0.789672 8.6452L0.807717 8.62531C1.13233 8.27918 1.54964 8.10811 1.96041 8.11607C2.36416 8.12005 2.7615 8.2951 3.06394 8.63725L3.08132 8.65714C3.24453 8.85208 3.41136 9.04305 3.58526 9.23401C3.75216 9.421 3.92961 9.61197 4.11755 9.81089C4.29854 10.0019 4.47967 10.1849 4.65746 10.3559C4.83865 10.535 5.02359 10.7021 5.20505 10.8652C5.32368 10.9726 5.44579 11.084 5.56449 11.1874C5.67618 11.2869 5.76327 11.3744 5.8293 11.45C5.87615 11.4023 5.93369 11.3506 6.00547 11.2949C6.13794 11.2113 6.25624 11.1278 6.3746 11.0402ZM21.4685 12.2895L21.3315 12.4287C21.1225 12.6396 20.9064 12.8544 20.6833 13.0613C20.4638 13.2642 20.2337 13.4711 19.9892 13.6819L19.6549 13.9724C19.6513 13.9763 19.6189 14.0082 19.6154 14.0082C18.7707 14.7362 18.3394 15.1102 17.5767 15.1778H17.566C17.1439 15.2136 16.8121 15.142 16.4644 14.967C16.1517 14.8118 15.8439 14.5811 15.4416 14.2787L15.5796 17.0318H29.196L28.7849 13.2443C28.4012 13.5228 27.9714 13.8092 27.5943 14.1116C27.1388 14.4498 26.7981 14.7004 26.4446 14.8675C26.0696 15.0505 25.7141 15.1261 25.2613 15.0903C24.8438 15.0585 24.5166 14.9272 24.1697 14.7044C23.8613 14.5055 23.5402 14.219 23.1214 13.8451C22.9887 13.7337 22.8596 13.6143 22.7305 13.4989C22.4756 13.2801 22.2384 13.0573 22.0154 12.8385C21.8272 12.6555 21.6461 12.4725 21.4685 12.2895ZM13.2464 23.083L14.5527 23.5565C14.4568 23.9941 14.3124 24.3641 14.1162 24.6585C13.92 24.9529 13.6824 25.1757 13.3966 25.3229C13.1142 25.4741 12.7552 25.5497 12.3195 25.5497C11.7917 25.5497 11.3611 25.4582 11.0312 25.2752C10.7013 25.0922 10.4162 24.7699 10.183 24.3124C9.94626 23.8549 9.83577 23.2621 9.84779 22.546C9.86381 21.5911 10.0887 20.8551 10.5259 20.3419C10.9631 19.8287 11.5697 19.5701 12.3525 19.5701C12.9618 19.5701 13.4411 19.7173 13.7868 20.0117C14.129 20.3061 14.3835 20.7596 14.5433 21.3723L13.2127 21.7145C13.1696 21.5394 13.1222 21.4121 13.0739 21.3325C12.9912 21.1973 12.8902 21.0898 12.771 21.0182C12.6518 20.9426 12.5143 20.9068 12.3655 20.9068C12.0254 20.9068 11.7606 21.0699 11.5745 21.3962C11.4322 21.6389 11.3586 22.0168 11.3499 22.534C11.3392 23.1746 11.4133 23.6122 11.5722 23.8509C11.7312 24.0896 11.9595 24.205 12.2535 24.205C12.5404 24.205 12.7581 24.1095 12.9101 23.9185C13.0621 23.7236 13.1731 23.4451 13.2464 23.083ZM15.461 19.6655H16.9594L16.9255 21.6866H18.5655L18.5995 19.6655H20.1014L20.0043 25.4502H18.4989L18.5382 23.1069H16.8981L16.8588 25.4502H15.3604L15.4575 19.6655H15.461ZM21.2101 19.6655H25.2199L25.1992 20.9029H22.6948L22.6793 21.8259H25.003L24.9833 23.0035H22.6596L22.6405 24.1413H25.2228L25.2008 25.4502H21.113L21.2101 19.6655ZM26.2118 19.6655H30.2216L30.2009 20.9029H27.6929L27.6775 21.8259H30.0012L29.9814 23.0035H27.6577L27.6386 24.1413H30.2209L30.1989 25.4502H26.1147L26.2118 19.6655ZM31.1412 25.4502L31.2383 19.6655H33.7355C34.1996 19.6655 34.553 19.7133 34.7958 19.8088C35.0386 19.9043 35.2341 20.0793 35.3786 20.3339C35.523 20.5925 35.5921 20.9068 35.586 21.2728C35.5806 21.5951 35.5193 21.8696 35.3985 22.1043C35.2812 22.3391 35.1186 22.5261 34.9142 22.6733C34.7852 22.7648 34.6068 22.8404 34.3861 22.904C34.562 22.9756 34.6919 23.0472 34.7722 23.1149C34.8246 23.1626 34.9043 23.2661 35.008 23.4172C35.1082 23.5724 35.177 23.6918 35.211 23.7753L35.9127 25.4463H34.2195L33.4485 23.6838C33.3497 23.453 33.2636 23.3058 33.1868 23.2382C33.0784 23.1507 32.9587 23.1069 32.8206 23.1069H32.6895L32.6502 25.4502H31.1412ZM32.7007 22.0168H33.3348C33.4021 22.0168 33.5372 21.989 33.7329 21.9373C33.8324 21.9134 33.9149 21.8537 33.9803 21.7542C34.0458 21.6548 34.0795 21.5434 34.0817 21.4161C34.0848 21.2291 34.0376 21.0859 33.9401 20.9864C33.8426 20.8869 33.6557 20.8352 33.3829 20.8352H32.7241L32.7043 22.0168H32.7007Z" fill="#C4C4C4"/>
</g>
<defs>
<clipPath id="clip0">
<rect width="43.5273" height="28.084" fill="white" transform="matrix(1 0 -0.0167764 0.999859 0.471123 0)"/>
</clipPath>
</defs>
</svg>
